<mxfile host="65bd71144e">
    <diagram id="L_YF2_mMsxPXs-gu_ANQ" name="페이지-1">
        <mxGraphModel dx="1353" dy="408" grid="0" gridSize="10" guides="1" tooltips="1" connect="1" arrows="1" fold="1" page="0" pageScale="1" pageWidth="827" pageHeight="1169" math="0" shadow="0">
            <root>
                <mxCell id="0"/>
                <mxCell id="1" parent="0"/>
                <mxCell id="56" value="" style="rounded=0;whiteSpace=wrap;html=1;fillColor=none;strokeWidth=3;strokeColor=#00FF00;" vertex="1" parent="1">
                    <mxGeometry x="-60" y="100" width="770" height="330" as="geometry"/>
                </mxCell>
                <mxCell id="38" style="edgeStyle=none;rounded=0;html=1;exitX=1;exitY=0.5;exitDx=0;exitDy=0;entryX=0;entryY=0.5;entryDx=0;entryDy=0;" edge="1" parent="1" source="2" target="3">
                    <mxGeometry relative="1" as="geometry">
                        <Array as="points">
                            <mxPoint x="83" y="220"/>
                            <mxPoint x="83" y="160"/>
                        </Array>
                    </mxGeometry>
                </mxCell>
                <mxCell id="2" value="Prescaler&lt;br&gt;for 1k Hz" style="rounded=0;whiteSpace=wrap;html=1;" vertex="1" parent="1">
                    <mxGeometry x="-7" y="200" width="80" height="40" as="geometry"/>
                </mxCell>
                <mxCell id="37" value="" style="edgeStyle=none;rounded=0;html=1;" edge="1" parent="1" source="3" target="5">
                    <mxGeometry relative="1" as="geometry"/>
                </mxCell>
                <mxCell id="3" value="Counter to FND" style="rounded=0;whiteSpace=wrap;html=1;" vertex="1" parent="1">
                    <mxGeometry x="103" y="140" width="80" height="40" as="geometry"/>
                </mxCell>
                <mxCell id="40" value="" style="edgeStyle=none;rounded=0;html=1;entryX=0;entryY=0.25;entryDx=0;entryDy=0;exitX=1.003;exitY=0.221;exitDx=0;exitDy=0;exitPerimeter=0;" edge="1" parent="1" source="4" target="6">
                    <mxGeometry relative="1" as="geometry">
                        <Array as="points">
                            <mxPoint x="200" y="261"/>
                            <mxPoint x="200" y="210"/>
                            <mxPoint x="223" y="210"/>
                        </Array>
                    </mxGeometry>
                </mxCell>
                <mxCell id="4" value="Counter to Clock" style="rounded=0;whiteSpace=wrap;html=1;" vertex="1" parent="1">
                    <mxGeometry x="103" y="240" width="80" height="95.38" as="geometry"/>
                </mxCell>
                <mxCell id="19" style="edgeStyle=none;html=1;exitX=1;exitY=0.5;exitDx=0;exitDy=0;entryX=0.5;entryY=0;entryDx=0;entryDy=0;rounded=0;" edge="1" parent="1" source="5" target="17">
                    <mxGeometry relative="1" as="geometry">
                        <Array as="points">
                            <mxPoint x="779" y="160"/>
                        </Array>
                    </mxGeometry>
                </mxCell>
                <mxCell id="5" value="2x4 Decoder" style="rounded=0;whiteSpace=wrap;html=1;" vertex="1" parent="1">
                    <mxGeometry x="612" y="140" width="80" height="40" as="geometry"/>
                </mxCell>
                <mxCell id="6" value="Digit divider&lt;br&gt;for Hour, Min" style="rounded=0;whiteSpace=wrap;html=1;" vertex="1" parent="1">
                    <mxGeometry x="248" y="190" width="60" height="80" as="geometry"/>
                </mxCell>
                <mxCell id="7" value="Digit divider&lt;br&gt;for Sec, mSec" style="rounded=0;whiteSpace=wrap;html=1;" vertex="1" parent="1">
                    <mxGeometry x="248" y="320" width="60" height="78.75" as="geometry"/>
                </mxCell>
                <mxCell id="20" value="" style="edgeStyle=none;rounded=0;html=1;" edge="1" parent="1" source="16" target="17">
                    <mxGeometry relative="1" as="geometry"/>
                </mxCell>
                <mxCell id="16" value="BCD to FND Decoder" style="rounded=0;whiteSpace=wrap;html=1;" vertex="1" parent="1">
                    <mxGeometry x="618" y="260" width="80" height="40" as="geometry"/>
                </mxCell>
                <mxCell id="18" value="" style="group" vertex="1" connectable="0" parent="1">
                    <mxGeometry x="729" y="260" width="100" height="40" as="geometry"/>
                </mxCell>
                <mxCell id="9" value="" style="verticalLabelPosition=bottom;shadow=0;dashed=0;align=center;html=1;verticalAlign=top;shape=mxgraph.electrical.opto_electronics.7_segment_display_with_dp;pointerEvents=1;" vertex="1" parent="18">
                    <mxGeometry x="10" y="10" width="20" height="20" as="geometry"/>
                </mxCell>
                <mxCell id="10" value="" style="verticalLabelPosition=bottom;shadow=0;dashed=0;align=center;html=1;verticalAlign=top;shape=mxgraph.electrical.opto_electronics.7_segment_display_with_dp;pointerEvents=1;" vertex="1" parent="18">
                    <mxGeometry x="30" y="10" width="20" height="20" as="geometry"/>
                </mxCell>
                <mxCell id="11" value="" style="verticalLabelPosition=bottom;shadow=0;dashed=0;align=center;html=1;verticalAlign=top;shape=mxgraph.electrical.opto_electronics.7_segment_display_with_dp;pointerEvents=1;" vertex="1" parent="18">
                    <mxGeometry x="50" y="10" width="20" height="20" as="geometry"/>
                </mxCell>
                <mxCell id="12" value="" style="verticalLabelPosition=bottom;shadow=0;dashed=0;align=center;html=1;verticalAlign=top;shape=mxgraph.electrical.opto_electronics.7_segment_display_with_dp;pointerEvents=1;" vertex="1" parent="18">
                    <mxGeometry x="70" y="10" width="20" height="20" as="geometry"/>
                </mxCell>
                <mxCell id="17" value="" style="rounded=0;whiteSpace=wrap;html=1;fillColor=none;" vertex="1" parent="18">
                    <mxGeometry width="100" height="40" as="geometry"/>
                </mxCell>
                <mxCell id="23" value="" style="edgeStyle=none;rounded=0;html=1;" edge="1" parent="1" source="22" target="16">
                    <mxGeometry relative="1" as="geometry"/>
                </mxCell>
                <mxCell id="22" value="2 x 1 MUX" style="shape=trapezoid;perimeter=trapezoidPerimeter;whiteSpace=wrap;html=1;fixedSize=1;fillColor=none;rotation=90;" vertex="1" parent="1">
                    <mxGeometry x="529" y="261.25" width="90" height="37.5" as="geometry"/>
                </mxCell>
                <mxCell id="113" style="edgeStyle=none;rounded=0;html=1;exitX=0.5;exitY=0;exitDx=0;exitDy=0;entryX=0.75;entryY=1;entryDx=0;entryDy=0;" edge="1" parent="1" source="25" target="22">
                    <mxGeometry relative="1" as="geometry">
                        <Array as="points">
                            <mxPoint x="538" y="359"/>
                            <mxPoint x="538" y="303"/>
                        </Array>
                    </mxGeometry>
                </mxCell>
                <mxCell id="25" value="8 x 1 MUX" style="shape=trapezoid;perimeter=trapezoidPerimeter;whiteSpace=wrap;html=1;fixedSize=1;fillColor=none;rotation=90;" vertex="1" parent="1">
                    <mxGeometry x="442.5" y="340.63" width="114" height="37.5" as="geometry"/>
                </mxCell>
                <mxCell id="39" value="" style="endArrow=classic;html=1;rounded=0;exitX=1;exitY=0.5;exitDx=0;exitDy=0;entryX=0;entryY=0.5;entryDx=0;entryDy=0;" edge="1" parent="1" source="2" target="4">
                    <mxGeometry width="50" height="50" relative="1" as="geometry">
                        <mxPoint x="253" y="340" as="sourcePoint"/>
                        <mxPoint x="303" y="290" as="targetPoint"/>
                        <Array as="points">
                            <mxPoint x="83" y="220"/>
                            <mxPoint x="83" y="288"/>
                        </Array>
                    </mxGeometry>
                </mxCell>
                <mxCell id="41" value="" style="endArrow=classic;html=1;rounded=0;entryX=-0.022;entryY=0.632;entryDx=0;entryDy=0;entryPerimeter=0;exitX=1.007;exitY=0.423;exitDx=0;exitDy=0;exitPerimeter=0;" edge="1" parent="1" source="4" target="6">
                    <mxGeometry width="50" height="50" relative="1" as="geometry">
                        <mxPoint x="183" y="270" as="sourcePoint"/>
                        <mxPoint x="253" y="250" as="targetPoint"/>
                        <Array as="points">
                            <mxPoint x="220" y="280"/>
                            <mxPoint x="220" y="241"/>
                        </Array>
                    </mxGeometry>
                </mxCell>
                <mxCell id="43" value="" style="endArrow=classic;html=1;rounded=0;entryX=0;entryY=0.391;entryDx=0;entryDy=0;entryPerimeter=0;exitX=1.008;exitY=0.635;exitDx=0;exitDy=0;exitPerimeter=0;" edge="1" parent="1" source="4" target="7">
                    <mxGeometry width="50" height="50" relative="1" as="geometry">
                        <mxPoint x="183" y="291" as="sourcePoint"/>
                        <mxPoint x="253" y="250" as="targetPoint"/>
                        <Array as="points">
                            <mxPoint x="220" y="301"/>
                            <mxPoint x="220" y="351"/>
                        </Array>
                    </mxGeometry>
                </mxCell>
                <mxCell id="45" value="" style="endArrow=classic;html=1;rounded=0;entryX=0;entryY=0.75;entryDx=0;entryDy=0;exitX=1.003;exitY=0.838;exitDx=0;exitDy=0;exitPerimeter=0;" edge="1" parent="1" source="4" target="7">
                    <mxGeometry width="50" height="50" relative="1" as="geometry">
                        <mxPoint x="193" y="310" as="sourcePoint"/>
                        <mxPoint x="273" y="328.75" as="targetPoint"/>
                        <Array as="points">
                            <mxPoint x="200" y="320"/>
                            <mxPoint x="200" y="379"/>
                        </Array>
                    </mxGeometry>
                </mxCell>
                <mxCell id="46" value="" style="endArrow=classic;html=1;rounded=0;startArrow=none;" edge="1" parent="1">
                    <mxGeometry width="50" height="50" relative="1" as="geometry">
                        <mxPoint x="-80" y="220" as="sourcePoint"/>
                        <mxPoint x="-7" y="220" as="targetPoint"/>
                    </mxGeometry>
                </mxCell>
                <mxCell id="47" value="&lt;font face=&quot;helvetica&quot;&gt;Clock&lt;/font&gt;" style="text;whiteSpace=wrap;html=1;" vertex="1" parent="1">
                    <mxGeometry x="-122.5" y="205" width="57.5" height="30" as="geometry"/>
                </mxCell>
                <mxCell id="49" value="" style="endArrow=classic;html=1;rounded=0;entryX=1;entryY=0.5;entryDx=0;entryDy=0;" edge="1" parent="1" target="22">
                    <mxGeometry width="50" height="50" relative="1" as="geometry">
                        <mxPoint x="-80" y="420" as="sourcePoint"/>
                        <mxPoint x="320" y="300" as="targetPoint"/>
                        <Array as="points">
                            <mxPoint x="574" y="420"/>
                        </Array>
                    </mxGeometry>
                </mxCell>
                <mxCell id="54" value="&lt;font color=&quot;#99ff99&quot; style=&quot;font-size: 19px&quot;&gt;Clock FND timer&lt;/font&gt;" style="text;strokeColor=none;fillColor=none;html=1;fontSize=24;fontStyle=1;verticalAlign=middle;align=center;" vertex="1" parent="1">
                    <mxGeometry x="281" y="430" width="100" height="40" as="geometry"/>
                </mxCell>
                <mxCell id="55" value="Mode" style="text;html=1;strokeColor=none;fillColor=none;align=center;verticalAlign=middle;whiteSpace=wrap;rounded=0;" vertex="1" parent="1">
                    <mxGeometry x="-128" y="405" width="60" height="30" as="geometry"/>
                </mxCell>
                <mxCell id="57" value="Reset" style="text;html=1;strokeColor=none;fillColor=none;align=center;verticalAlign=middle;whiteSpace=wrap;rounded=0;" vertex="1" parent="1">
                    <mxGeometry x="-138" y="152" width="61.5" height="32" as="geometry"/>
                </mxCell>
                <mxCell id="60" value="" style="endArrow=classic;html=1;exitX=1;exitY=0.5;exitDx=0;exitDy=0;entryX=0;entryY=0.25;entryDx=0;entryDy=0;rounded=0;" edge="1" parent="1" target="2">
                    <mxGeometry width="50" height="50" relative="1" as="geometry">
                        <mxPoint x="-67.5" y="168" as="sourcePoint"/>
                        <mxPoint x="276" y="247" as="targetPoint"/>
                        <Array as="points">
                            <mxPoint x="-23" y="168"/>
                            <mxPoint x="-23" y="210"/>
                        </Array>
                    </mxGeometry>
                </mxCell>
                <mxCell id="61" value="" style="endArrow=classic;html=1;rounded=0;entryX=0;entryY=0.25;entryDx=0;entryDy=0;" edge="1" parent="1" target="3">
                    <mxGeometry width="50" height="50" relative="1" as="geometry">
                        <mxPoint x="-67" y="168" as="sourcePoint"/>
                        <mxPoint x="193" y="247" as="targetPoint"/>
                        <Array as="points">
                            <mxPoint x="66" y="168"/>
                            <mxPoint x="66" y="150"/>
                        </Array>
                    </mxGeometry>
                </mxCell>
                <mxCell id="62" value="" style="endArrow=classic;html=1;rounded=0;exitX=1;exitY=0.5;exitDx=0;exitDy=0;entryX=-0.018;entryY=0.634;entryDx=0;entryDy=0;entryPerimeter=0;" edge="1" parent="1" source="57" target="4">
                    <mxGeometry width="50" height="50" relative="1" as="geometry">
                        <mxPoint x="-67.5" y="168" as="sourcePoint"/>
                        <mxPoint x="100" y="310" as="targetPoint"/>
                        <Array as="points">
                            <mxPoint x="-43" y="168"/>
                            <mxPoint x="-43" y="300"/>
                        </Array>
                    </mxGeometry>
                </mxCell>
                <mxCell id="63" value="" style="endArrow=classic;html=1;rounded=0;entryX=0;entryY=0.5;entryDx=0;entryDy=0;exitX=1;exitY=0.5;exitDx=0;exitDy=0;" edge="1" parent="1" source="3" target="96">
                    <mxGeometry width="50" height="50" relative="1" as="geometry">
                        <mxPoint x="555" y="297" as="sourcePoint"/>
                        <mxPoint x="499.4999999999998" y="193.0000000000001" as="targetPoint"/>
                        <Array as="points">
                            <mxPoint x="455" y="160"/>
                            <mxPoint x="500" y="160"/>
                        </Array>
                    </mxGeometry>
                </mxCell>
                <mxCell id="65" value="Enable" style="text;html=1;strokeColor=none;fillColor=none;align=center;verticalAlign=middle;whiteSpace=wrap;rounded=0;" vertex="1" parent="1">
                    <mxGeometry x="-136" y="108" width="61.5" height="32" as="geometry"/>
                </mxCell>
                <mxCell id="66" value="" style="endArrow=classic;html=1;rounded=0;exitX=1;exitY=0.5;exitDx=0;exitDy=0;entryX=0.5;entryY=0;entryDx=0;entryDy=0;" edge="1" parent="1" source="65" target="5">
                    <mxGeometry width="50" height="50" relative="1" as="geometry">
                        <mxPoint x="33" y="297" as="sourcePoint"/>
                        <mxPoint x="640" y="140" as="targetPoint"/>
                        <Array as="points">
                            <mxPoint x="652" y="125"/>
                        </Array>
                    </mxGeometry>
                </mxCell>
                <mxCell id="67" value="" style="endArrow=classic;html=1;rounded=0;entryX=0.5;entryY=0;entryDx=0;entryDy=0;exitX=1;exitY=0.5;exitDx=0;exitDy=0;" edge="1" parent="1" source="65" target="16">
                    <mxGeometry width="50" height="50" relative="1" as="geometry">
                        <mxPoint x="30" y="125" as="sourcePoint"/>
                        <mxPoint x="630" y="261" as="targetPoint"/>
                        <Array as="points">
                            <mxPoint x="551" y="125"/>
                            <mxPoint x="551" y="213"/>
                            <mxPoint x="658" y="213"/>
                        </Array>
                    </mxGeometry>
                </mxCell>
                <mxCell id="68" value="Comparator" style="rounded=0;whiteSpace=wrap;html=1;" vertex="1" parent="1">
                    <mxGeometry x="320" y="280.38" width="70" height="30" as="geometry"/>
                </mxCell>
                <mxCell id="79" value="" style="group" vertex="1" connectable="0" parent="1">
                    <mxGeometry x="308" y="200" width="172" height="29.75999999999999" as="geometry"/>
                </mxCell>
                <mxCell id="72" value="" style="edgeStyle=none;rounded=0;html=1;" edge="1" parent="79">
                    <mxGeometry relative="1" as="geometry">
                        <mxPoint y="19" as="sourcePoint"/>
                        <mxPoint x="172" y="19" as="targetPoint"/>
                    </mxGeometry>
                </mxCell>
                <mxCell id="74" value="" style="edgeStyle=none;rounded=0;html=1;" edge="1" parent="79">
                    <mxGeometry relative="1" as="geometry">
                        <mxPoint y="10" as="sourcePoint"/>
                        <mxPoint x="172" y="10" as="targetPoint"/>
                    </mxGeometry>
                </mxCell>
                <mxCell id="75" value="" style="edgeStyle=none;rounded=0;html=1;" edge="1" parent="79">
                    <mxGeometry relative="1" as="geometry">
                        <mxPoint as="sourcePoint"/>
                        <mxPoint x="172" as="targetPoint"/>
                    </mxGeometry>
                </mxCell>
                <mxCell id="78" value="" style="edgeStyle=none;rounded=0;html=1;" edge="1" parent="79">
                    <mxGeometry relative="1" as="geometry">
                        <mxPoint y="29.75999999999999" as="sourcePoint"/>
                        <mxPoint x="172" y="29.75999999999999" as="targetPoint"/>
                    </mxGeometry>
                </mxCell>
                <mxCell id="112" style="edgeStyle=none;rounded=0;html=1;exitX=0.5;exitY=0;exitDx=0;exitDy=0;entryX=0.25;entryY=1;entryDx=0;entryDy=0;" edge="1" parent="1" source="96" target="22">
                    <mxGeometry relative="1" as="geometry">
                        <Array as="points">
                            <mxPoint x="534" y="230"/>
                            <mxPoint x="534" y="258"/>
                        </Array>
                    </mxGeometry>
                </mxCell>
                <mxCell id="96" value="8 x 1 MUX" style="shape=trapezoid;perimeter=trapezoidPerimeter;whiteSpace=wrap;html=1;fixedSize=1;fillColor=none;rotation=90;" vertex="1" parent="1">
                    <mxGeometry x="442.5" y="211.25" width="114" height="37.5" as="geometry"/>
                </mxCell>
                <mxCell id="97" value="" style="group" vertex="1" connectable="0" parent="1">
                    <mxGeometry x="420" y="295" width="30" height="55" as="geometry"/>
                </mxCell>
                <mxCell id="92" value="" style="edgeStyle=none;rounded=0;html=1;exitX=1;exitY=0.5;exitDx=0;exitDy=0;" edge="1" parent="97" source="68">
                    <mxGeometry relative="1" as="geometry">
                        <mxPoint x="-110" y="44" as="sourcePoint"/>
                        <mxPoint x="62" y="44" as="targetPoint"/>
                        <Array as="points">
                            <mxPoint x="10"/>
                            <mxPoint x="10" y="44"/>
                        </Array>
                    </mxGeometry>
                </mxCell>
                <mxCell id="93" value="" style="edgeStyle=none;rounded=0;html=1;exitX=1;exitY=0.5;exitDx=0;exitDy=0;" edge="1" parent="97" source="68">
                    <mxGeometry relative="1" as="geometry">
                        <mxPoint x="-110" y="35" as="sourcePoint"/>
                        <mxPoint x="62" y="35" as="targetPoint"/>
                        <Array as="points">
                            <mxPoint x="20"/>
                            <mxPoint x="20" y="35"/>
                        </Array>
                    </mxGeometry>
                </mxCell>
                <mxCell id="94" value="" style="edgeStyle=none;rounded=0;html=1;exitX=1;exitY=0.5;exitDx=0;exitDy=0;" edge="1" parent="97" source="68">
                    <mxGeometry relative="1" as="geometry">
                        <mxPoint x="-110" y="25" as="sourcePoint"/>
                        <mxPoint x="62" y="25" as="targetPoint"/>
                        <Array as="points">
                            <mxPoint x="30"/>
                            <mxPoint x="30" y="25"/>
                        </Array>
                    </mxGeometry>
                </mxCell>
                <mxCell id="95" value="" style="edgeStyle=none;rounded=0;html=1;exitX=1;exitY=0.5;exitDx=0;exitDy=0;" edge="1" parent="97" source="68">
                    <mxGeometry relative="1" as="geometry">
                        <mxPoint x="-110" y="54.75999999999999" as="sourcePoint"/>
                        <mxPoint x="62" y="54.75999999999999" as="targetPoint"/>
                        <Array as="points">
                            <mxPoint/>
                            <mxPoint y="55"/>
                        </Array>
                    </mxGeometry>
                </mxCell>
                <mxCell id="86" value="" style="edgeStyle=none;rounded=0;html=1;exitX=1;exitY=0.5;exitDx=0;exitDy=0;" edge="1" parent="1" source="68">
                    <mxGeometry relative="1" as="geometry">
                        <mxPoint x="390" y="290" as="sourcePoint"/>
                        <mxPoint x="480" y="259" as="targetPoint"/>
                        <Array as="points">
                            <mxPoint x="440" y="295"/>
                            <mxPoint x="440" y="259"/>
                        </Array>
                    </mxGeometry>
                </mxCell>
                <mxCell id="87" value="" style="edgeStyle=none;rounded=0;html=1;exitX=1;exitY=0.5;exitDx=0;exitDy=0;" edge="1" parent="1" source="68">
                    <mxGeometry relative="1" as="geometry">
                        <mxPoint x="308" y="250" as="sourcePoint"/>
                        <mxPoint x="480" y="250" as="targetPoint"/>
                        <Array as="points">
                            <mxPoint x="430" y="295"/>
                            <mxPoint x="430" y="250"/>
                        </Array>
                    </mxGeometry>
                </mxCell>
                <mxCell id="88" value="" style="edgeStyle=none;rounded=0;html=1;exitX=1;exitY=0.5;exitDx=0;exitDy=0;" edge="1" parent="1" source="68">
                    <mxGeometry relative="1" as="geometry">
                        <mxPoint x="308" y="240" as="sourcePoint"/>
                        <mxPoint x="480" y="240" as="targetPoint"/>
                        <Array as="points">
                            <mxPoint x="420" y="295"/>
                            <mxPoint x="420" y="240"/>
                        </Array>
                    </mxGeometry>
                </mxCell>
                <mxCell id="89" value="" style="edgeStyle=none;rounded=0;html=1;exitX=1;exitY=0.5;exitDx=0;exitDy=0;" edge="1" parent="1" source="68">
                    <mxGeometry relative="1" as="geometry">
                        <mxPoint x="390" y="290" as="sourcePoint"/>
                        <mxPoint x="480" y="269.76" as="targetPoint"/>
                        <Array as="points">
                            <mxPoint x="450" y="295"/>
                            <mxPoint x="450" y="270"/>
                        </Array>
                    </mxGeometry>
                </mxCell>
                <mxCell id="81" value="" style="edgeStyle=none;rounded=0;html=1;" edge="1" parent="1">
                    <mxGeometry relative="1" as="geometry">
                        <mxPoint x="308" y="379.62" as="sourcePoint"/>
                        <mxPoint x="480" y="379.62" as="targetPoint"/>
                    </mxGeometry>
                </mxCell>
                <mxCell id="82" value="" style="edgeStyle=none;rounded=0;html=1;" edge="1" parent="1">
                    <mxGeometry relative="1" as="geometry">
                        <mxPoint x="308" y="370.62" as="sourcePoint"/>
                        <mxPoint x="480" y="370.62" as="targetPoint"/>
                    </mxGeometry>
                </mxCell>
                <mxCell id="83" value="" style="edgeStyle=none;rounded=0;html=1;" edge="1" parent="1">
                    <mxGeometry relative="1" as="geometry">
                        <mxPoint x="308" y="359.34000000000003" as="sourcePoint"/>
                        <mxPoint x="480" y="359.34000000000003" as="targetPoint"/>
                    </mxGeometry>
                </mxCell>
                <mxCell id="84" value="" style="edgeStyle=none;rounded=0;html=1;" edge="1" parent="1">
                    <mxGeometry relative="1" as="geometry">
                        <mxPoint x="308" y="390.38" as="sourcePoint"/>
                        <mxPoint x="480" y="390.38" as="targetPoint"/>
                    </mxGeometry>
                </mxCell>
                <mxCell id="109" value="" style="edgeStyle=none;rounded=0;html=1;entryX=0.5;entryY=1;entryDx=0;entryDy=0;exitX=1;exitY=0.5;exitDx=0;exitDy=0;" edge="1" parent="1" source="7" target="68">
                    <mxGeometry relative="1" as="geometry">
                        <mxPoint x="310" y="359" as="sourcePoint"/>
                        <mxPoint x="490" y="370.62" as="targetPoint"/>
                        <Array as="points">
                            <mxPoint x="330" y="359"/>
                            <mxPoint x="330" y="340"/>
                            <mxPoint x="355" y="340"/>
                        </Array>
                    </mxGeometry>
                </mxCell>
                <mxCell id="111" value="" style="endArrow=classic;html=1;rounded=0;exitX=1;exitY=0.5;exitDx=0;exitDy=0;entryX=0;entryY=0.5;entryDx=0;entryDy=0;" edge="1" parent="1" source="3" target="25">
                    <mxGeometry width="50" height="50" relative="1" as="geometry">
                        <mxPoint x="400" y="270" as="sourcePoint"/>
                        <mxPoint x="450" y="220" as="targetPoint"/>
                        <Array as="points">
                            <mxPoint x="540" y="160"/>
                            <mxPoint x="540" y="290"/>
                            <mxPoint x="500" y="290"/>
                        </Array>
                    </mxGeometry>
                </mxCell>
            </root>
        </mxGraphModel>
    </diagram>
</mxfile>